<?xml version="1.0" encoding="UTF-8"?>
<svg id="Layer_2" data-name="Layer 2" xmlns="http://www.w3.org/2000/svg" viewBox="0 0 337.3 337.3">
  <defs>
    <style>
      .cls-1 {
        fill: #fff;
      }

      .cls-2 {
        fill: #2e7a62;
      }
    </style>
  </defs>
  <g id="Layer_1-2" data-name="Layer 1">
    <g>
      <rect class="cls-2" width="337.3" height="337.3" rx="85.38" ry="85.38"/>
      <path class="cls-1" d="M114.07,293.13c4.13-11.33,18.2-24.61,27.62-31.26l42.11-29.75c24.28-17.15,41.51-47.82,21.28-75.44-5.54-7.56-12.38-13.34-20.18-18.9l-12.77,11.78c8.27,6.76,14.77,12.35,18.36,22.55l-44.23.11c-3.67,3.1-6.36,5.45-10.32,10.22l56.79.12c.46,5.46-1.03,10.67-3.84,16.09l-66.96-.16-3.48,10.59,62.04.28c-8.32,9.21-17.42,15.5-27.06,22.27l-14.1,9.91c-20.53,14.43-36.99,28.45-48.59,51.47l-31.26-.07c-1.17-20.1-1.77-39.33-.74-59.36.85-16.55,7.02-31.31,14.83-45.71,9.01-16.59,20.77-30.62,33.44-44.49,6.19-6.78,13.24-12.24,18.41-20.55-21.57,15.19-37.68,34.93-52.89,55.9-13.81-43.57-15.31-89.1-17.38-134.42l30.66-.18c6.02,30.43,23.3,56.26,48.04,74.86l11.64-9.97-12.18-11.98,26.03-.38,7.57-9.7-43.33-.29c-3.81-5.59-6.7-10.29-9.18-16.46l59.87-.2,1.95-10.84-66.44-.14c-1.59-4.74-2.57-9.07-3.49-14.92l91.03.2c18.05.04,35.36,6.91,48.83,18.03,15.43,12.73,22.67,30.68,21.13,50.32-1.73,22.01-14.87,39.29-36.2,47.75,12.55,4.73,23.06,9.53,31.9,18.1,14.3,13.87,20.68,32.12,18.93,51.89-1.31,14.85-6.49,28.02-17.06,38.93-12.48,12.9-29.39,20.77-47.4,22.86-7.04-18.45-19.31-33.08-36.47-43.19-5.31,3.1-10.13,6.38-14.91,9.97l15.3,10.08-29.94.58c-2.77,2.04-5.44,4.35-8.5,7.64l47.03.21c3.47,4.8,6.12,9.16,8.27,15.63l-84.14-.02ZM96.27,229.45c-1.78-17.06,3.28-30.7,12.69-43.45,20.59-25.25,46.97-40.49,71.14-63.38,7.87-7.45,15.02-15.81,19.01-25.75,5.11-12.73,2.02-27.18-8.76-35.65,4.02,21.45-13.14,37.22-28.05,50.55-23.53,19.85-51.42,41.14-66.98,67.94-8.38,14.45-13.57,37.79.94,49.73ZM147.43,233.12l-16.1-9.7-16.62-7.43c-.86,5.07-2.55,12.12-.83,16.8,4.19,6.54,12.86,9.31,19.97,10.5,3.95-4.43,8.23-7.15,13.58-10.16Z"/>
    </g>
  </g>
</svg>