<?xml version="1.0" encoding="UTF-8"?>
<svg id="Layer_2" data-name="Layer 2" xmlns="http://www.w3.org/2000/svg" viewBox="0 0 114.04 114.04">
  <defs>
    <style>
      .cls-1 {
        fill: #0a3d2e;
      }

      .cls-2 {
        fill: #fff;
      }
    </style>
  </defs>
  <g id="Layer_1-2" data-name="Layer 1">
    <g>
      <rect class="cls-1" x="0" y="0" width="114.04" height="114.04" rx="57.02" ry="57.02"/>
      <g>
        <path class="cls-2" d="M44.71,61.3c3.93-4.53,4.09-10.78.23-15.42-5.67-6.8-17.21-7.85-16.86-20.23l-2.93.03c-.83,6.19,1.94,11.85,6.94,15.54l-3.66,2.78c-1.85,1.4-3.02,3.5-3.83,5.7-2.43,6.63,2.72,11.88,7.14,15.85l3.4-2.66c-1.44-1.33-2.5-2.27-3.85-3.79l8.79-.16c.3,0,.75-.84.57-1.07-.15-.19-.65-.45-.91-.45h-9.58c-.75-.94-1.22-1.94-1.57-3.31l12.87.04c.27,0,.76-.37.85-.61.09-.24-.41-.86-.69-.87l-13.04-.05c.1-1.26.36-2.08.86-3.14h10.02c.34,0,.86-.57.81-.88-.04-.26-.55-.7-.82-.7l-8.79-.04c1.51-1.71,3.26-2.84,5.11-4.13,2.19,1.32,4.06,2.66,5.64,4.5,2.44,3.11,2.73,7.14.38,10.44-1.49,2.1-3.61,3.7-5.69,5.27-2.52,1.9-4.89,3.69-7.14,5.91-5.51,5.43-5.18,12.07-1.73,18.53,1.3-7.12-.35-10.66,4.97-16.32,4.4-4.06,8.5-6.14,12.49-10.74Z"/>
        <path class="cls-2" d="M82.87,54.24c3.56-5.5,4.18-12.13,1.54-17.98-2.85-6.31-9-10.07-15.9-10.32l-20.08.03,1.15,3.43,18.15-.02c8.9,0,15.67,7.17,14.74,16.05-.4,3.78-2.14,7.08-5.23,9.64,6.29,2.95,10,8.85,9.23,15.89-1.16,7.53-7.39,13.87-15.23,13.92l-22.65.15-1.61,3.36h24.02c8.77-.38,16.07-6.12,18.41-14.56,2.02-7.27-.68-14.74-6.54-19.59Z"/>
        <path class="cls-2" d="M52.7,77.02l17.18-.04c4.81-.01,8.25-3.79,8.01-8.39.04-4.23-3.22-7.9-7.65-7.92l-17.55-.05v16.4ZM56.17,64.07h13.55c2.82-.01,4.75,2.3,4.7,4.79-.05,2.78-2.04,4.68-5.02,4.68l-13.24-.03v-9.44Z"/>
        <path class="cls-2" d="M73.04,49.29c1.28-2.69,1.14-5.63-.27-8.13-1.51-2.1-3.88-3.4-6.55-3.4h-13.52s0,15.62,0,15.62l13.51.03c2.84-.25,5.36-1.56,6.82-4.12ZM56.16,49.94v-8.67s10.26,0,10.26,0c2.28,0,3.94,1.78,4.02,4.06.1,2.73-1.84,4.59-4.45,4.6h-9.84Z"/>
        <path class="cls-2" d="M40.02,67.17l-3.28,2.56,3.23,3.02-7.03.15c-.36,0-.92.64-.8.94.11.26.68.57.98.57h8.32c.64,1.02,1.11,1.94,1.5,3.18l-12.23.05c-.27,0-.7.52-.66.78.03.25.55.71.85.71h12.53s.44,3.3.44,3.3h-13.88c-.33.01-.78.75-.66.96.12.21.54.59.86.59l13.96.07.64,4.32c4.42-8.93,2.57-15.3-4.77-21.2Z"/>
        <path class="cls-2" d="M30.64,31.55l11.7.09c-.43,1.13-.88,1.93-1.49,2.84h-7.11c-.3.01-.81.55-.8.82,0,.23.46.66.73.67l5.56.18-2.34,2.13,3.57,2.35c4.85-3.47,7.29-9.09,5.93-14.98l-8.2.13c-.24,0-.8.49-.71.69.07.17.46.56.69.56l5.08.1c.07,1.01-.06,1.98-.35,2.93h-12.03c-.33,0-.89.39-.91.66-.02.23.41.83.69.84Z"/>
      </g>
    </g>
  </g>
</svg>