<?xml version="1.0" encoding="UTF-8"?>
<svg id="Layer_2" data-name="Layer 2" xmlns="http://www.w3.org/2000/svg" xmlns:xlink="http://www.w3.org/1999/xlink" viewBox="0 0 127.82 122.67">
  <defs>
    <style>
      .cls-1 {
        fill: none;
      }

      .cls-2 {
        fill: navy;
      }

      .cls-3 {
        fill: #00008f;
      }

      .cls-4 {
        fill: #000086;
      }

      .cls-5 {
        fill: #00008d;
      }

      .cls-6 {
        fill: #00008c;
      }

      .cls-7 {
        isolation: isolate;
      }

      .cls-8 {
        clip-path: url(#clippath-17);
      }

      .cls-9 {
        clip-path: url(#clippath-19);
      }

      .cls-10 {
        clip-path: url(#clippath-11);
      }

      .cls-11 {
        clip-path: url(#clippath-16);
      }

      .cls-12 {
        clip-path: url(#clippath-18);
      }

      .cls-13 {
        clip-path: url(#clippath-10);
      }

      .cls-14 {
        clip-path: url(#clippath-15);
      }

      .cls-15 {
        clip-path: url(#clippath-13);
      }

      .cls-16 {
        clip-path: url(#clippath-14);
      }

      .cls-17 {
        clip-path: url(#clippath-12);
      }

      .cls-18 {
        clip-path: url(#clippath-20);
      }

      .cls-19 {
        fill: #00e;
      }

      .cls-20 {
        fill: #00008a;
      }

      .cls-21 {
        clip-path: url(#clippath-1);
      }

      .cls-22 {
        clip-path: url(#clippath-3);
      }

      .cls-23 {
        clip-path: url(#clippath-4);
      }

      .cls-24 {
        clip-path: url(#clippath-2);
      }

      .cls-25 {
        clip-path: url(#clippath-7);
      }

      .cls-26 {
        clip-path: url(#clippath-6);
      }

      .cls-27 {
        clip-path: url(#clippath-9);
      }

      .cls-28 {
        clip-path: url(#clippath-8);
      }

      .cls-29 {
        clip-path: url(#clippath-5);
      }

      .cls-30 {
        fill: #000085;
      }

      .cls-31 {
        fill: #00008e;
      }

      .cls-32 {
        fill: #000081;
      }

      .cls-33 {
        clip-path: url(#clippath);
      }
    </style>
    <clipPath id="clippath">
      <path class="cls-1" d="M120.15,88.43h-3.75c1.41-13.82-5.36-25.42-16.81-31.21h3.75c11.45,5.79,18.22,17.39,16.81,31.21Z"/>
    </clipPath>
    <clipPath id="clippath-1">
      <path class="cls-1" d="M92.41,115.78h-3.75c14.28-.1,25.63-12.56,27.74-27.35h3.75c-2.11,14.79-13.46,27.25-27.74,27.35Z"/>
    </clipPath>
    <clipPath id="clippath-2">
      <path class="cls-1" d="M98.23,84.31h-3.75c.08-4.89-3.42-9.44-8.55-9.44h3.75c5.12,0,8.63,4.55,8.55,9.44Z"/>
    </clipPath>
    <clipPath id="clippath-3">
      <path class="cls-1" d="M89.09,93.49h-3.75c5.44,0,9.05-3.74,9.14-9.18h3.75c-.09,5.44-3.7,9.18-9.14,9.18Z"/>
    </clipPath>
    <clipPath id="clippath-4">
      <path class="cls-1" d="M103.34,57.22h-3.75c5.63-5.04,8.81-11.51,9.54-18.95,1.68-17.42-10.62-31.53-26.82-31.53h3.75c16.2,0,28.51,14.1,26.82,31.53-.73,7.43-3.91,13.9-9.54,18.95Z"/>
    </clipPath>
    <clipPath id="clippath-5">
      <path class="cls-1" d="M82.88,47.13h-3.75c4.75,0,8.29-3.66,8.1-9.03-.15-4.48-3.17-7.97-7.33-7.97h3.75c4.16,0,7.18,3.49,7.33,7.97.18,5.36-3.35,9.03-8.1,9.03Z"/>
    </clipPath>
    <clipPath id="clippath-6">
      <path class="cls-1" d="M38,8.64h-3.75c.53-1.85.76-3.74.63-5.72h3.75c.13,1.98-.11,3.87-.63,5.72Z"/>
    </clipPath>
    <clipPath id="clippath-7">
      <path class="cls-1" d="M38.09,101.59h-3.75c-.71-2.41-1.57-4.22-2.73-6.21h3.75c1.16,1.99,2.02,3.8,2.73,6.21Z"/>
    </clipPath>
    <clipPath id="clippath-8">
      <path class="cls-1" d="M34.28,17.28h-3.75c1.12-1.79,1.94-3.34,2.71-5.55h3.75c-.78,2.21-1.59,3.76-2.71,5.55Z"/>
    </clipPath>
    <clipPath id="clippath-9">
      <path class="cls-1" d="M29.39,2.73h-3.75c-.41,0-1.12-.78-1.25-1.1h3.75c.13.32.84,1.09,1.25,1.1Z"/>
    </clipPath>
    <clipPath id="clippath-10">
      <path class="cls-1" d="M28.14,1.63h-3.75c-.16-.4.87-1.35,1.3-1.36h3.75c-.43,0-1.46.95-1.3,1.36Z"/>
    </clipPath>
    <clipPath id="clippath-11">
      <path class="cls-1" d="M35.33,44.14h-3.75c-2.86-3.6-6.28-6.22-10.27-8.8h3.75c3.99,2.58,7.41,5.2,10.27,8.8Z"/>
    </clipPath>
    <clipPath id="clippath-12">
      <path class="cls-1" d="M21.22,20.2h-3.75c-.51-.02-1.32-.87-1.34-1.31-.03-.53.91-1.57,1.45-1.57h3.75c-.54,0-1.48,1.04-1.45,1.57.02.44.83,1.3,1.34,1.31Z"/>
    </clipPath>
    <clipPath id="clippath-13">
      <path class="cls-1" d="M20.21,95.38h-3.75c-.53,0-1.59-.62-1.78-1.13-.23-.58.78-1.82,1.44-1.84h3.75c-.66.02-1.67,1.25-1.44,1.84.19.5,1.24,1.12,1.78,1.12Z"/>
    </clipPath>
    <clipPath id="clippath-14">
      <path class="cls-1" d="M16.16,104.62h-3.75c-.53,0-1.49-.9-1.54-1.39s.72-1.52,1.21-1.52h3.75c-.49,0-1.27,1.03-1.21,1.52s1.01,1.39,1.54,1.39Z"/>
    </clipPath>
    <clipPath id="clippath-15">
      <path class="cls-1" d="M15.69,11.56h-3.75c-.5,0-1.29-1.2-1.25-1.63.03-.53,1.06-1.3,1.65-1.3h3.75c-.59,0-1.62.77-1.65,1.3-.03.43.75,1.63,1.25,1.63Z"/>
    </clipPath>
    <clipPath id="clippath-16">
      <path class="cls-1" d="M14.87,114.1h-3.75c-.57,0-1.34-.74-1.55-1.15h3.75c.22.41.98,1.14,1.55,1.15Z"/>
    </clipPath>
    <clipPath id="clippath-17">
      <path class="cls-1" d="M13.32,112.94h-3.75c-.23-.41.6-1.85,1.19-1.85h3.75c-.59,0-1.43,1.44-1.19,1.85Z"/>
    </clipPath>
    <clipPath id="clippath-18">
      <path class="cls-1" d="M9.51,122.65h-3.75c-6.28-12.64-6.88-25.61,3.15-36.23,4.1-4.33,8.43-7.83,13.01-11.56,3.79-3.07,7.64-6.21,10.36-10.3,4.29-6.47,3.75-14.34-.68-20.42h3.75c4.43,6.08,4.97,13.95.68,20.42-2.71,4.1-6.57,7.24-10.36,10.3-4.58,3.73-8.91,7.23-13.01,11.56-10.03,10.61-9.42,23.59-3.15,36.23Z"/>
    </clipPath>
    <clipPath id="clippath-19">
      <path class="cls-1" d="M18.33,30.47h-3.75C5.48,23.25.43,12.2,1.95.09h3.75c-1.52,12.11,3.54,23.16,12.63,30.38Z"/>
    </clipPath>
    <clipPath id="clippath-20">
      <path class="cls-1" d="M17.69,78.03h-3.75C5.89,70.26-3.49,59.99.94,47.04c1.47-4.3,3.61-8.4,6.98-11.14h3.75c-3.37,2.74-5.51,6.84-6.98,11.14-4.42,12.95,4.95,23.22,13.01,31Z"/>
    </clipPath>
  </defs>
  <g id="Layer_1-2" data-name="Layer 1">
    <g id="Biotechtube_logo" data-name="Biotechtube logo">
      <g id="B">
        <g class="cls-7">
          <g class="cls-7">
            <g class="cls-33">
              <g class="cls-7">
                <path class="cls-30" d="M120.15,88.43h-3.75c1.41-13.82-5.36-25.42-16.81-31.21h3.75c11.45,5.79,18.22,17.39,16.81,31.21"/>
              </g>
            </g>
          </g>
          <g class="cls-7">
            <g class="cls-21">
              <g class="cls-7">
                <path class="cls-3" d="M92.41,115.78h-3.75c3.93-.03,7.65-.99,11-2.69h3.75c-3.36,1.69-7.07,2.66-11,2.69"/>
                <path class="cls-20" d="M103.41,113.09h-3.75c3.15-1.59,5.98-3.82,8.4-6.52h3.75c-2.42,2.7-5.25,4.93-8.4,6.52"/>
                <path class="cls-30" d="M111.81,106.57h-3.75c4.36-4.87,7.35-11.25,8.33-18.15h3.75c-.98,6.89-3.98,13.28-8.33,18.15"/>
              </g>
            </g>
          </g>
          <g class="cls-7">
            <g class="cls-24">
              <g class="cls-7">
                <path class="cls-30" d="M98.23,84.31h-3.75c.08-4.89-3.42-9.44-8.55-9.44h3.75c5.12,0,8.63,4.55,8.55,9.44"/>
              </g>
            </g>
          </g>
          <g class="cls-7">
            <g class="cls-22">
              <g class="cls-7">
                <path class="cls-3" d="M89.09,93.49h-3.75c1.67,0,3.16-.35,4.43-.99h3.75c-1.27.64-2.77.99-4.43.99"/>
                <path class="cls-20" d="M93.52,92.5h-3.75c.92-.47,1.73-1.09,2.41-1.84h3.75c-.67.75-1.48,1.37-2.41,1.84"/>
                <path class="cls-30" d="M95.93,90.66h-3.75c1.43-1.6,2.25-3.78,2.3-6.35h3.75c-.04,2.56-.87,4.75-2.3,6.35"/>
              </g>
            </g>
          </g>
          <g class="cls-7">
            <g class="cls-23">
              <g class="cls-7">
                <path class="cls-20" d="M103.34,57.22h-3.75c.85-.76,1.64-1.55,2.37-2.37h3.75c-.74.82-1.53,1.61-2.37,2.37"/>
                <path class="cls-30" d="M105.72,54.85h-3.75c4.16-4.64,6.55-10.26,7.16-16.58,1.68-17.42-10.62-31.53-26.82-31.53h3.75c16.2,0,28.51,14.1,26.82,31.53-.62,6.32-3,11.94-7.16,16.58"/>
              </g>
            </g>
          </g>
          <g class="cls-7">
            <g class="cls-29">
              <g class="cls-7">
                <path class="cls-3" d="M82.88,47.13h-3.75c1.36,0,2.62-.3,3.73-.86h3.75c-1.1.56-2.37.86-3.73.86"/>
                <path class="cls-20" d="M86.61,46.27h-3.75c.85-.43,1.6-1,2.23-1.71h3.75c-.63.71-1.39,1.28-2.23,1.71"/>
                <path class="cls-30" d="M88.84,44.56h-3.75c1.42-1.58,2.23-3.81,2.14-6.46-.15-4.48-3.17-7.97-7.33-7.97h3.75c4.16,0,7.18,3.49,7.33,7.97.09,2.64-.72,4.88-2.14,6.46"/>
              </g>
            </g>
          </g>
          <polygon class="cls-2" points="83.66 30.13 79.91 30.13 61.23 30.11 64.98 30.11 83.66 30.13"/>
          <polygon class="cls-31" points="64.96 47.14 61.22 47.14 79.13 47.13 82.88 47.13 64.96 47.14"/>
          <polygon class="cls-2" points="83.28 53.96 79.53 53.96 54.93 53.9 58.67 53.9 83.28 53.96"/>
          <rect class="cls-32" x="54.92" y="68.11" width="3.75" height="32.21"/>
          <path class="cls-19" d="M104.55,83.77c.43,9.04-5.83,16.45-14.59,16.48l-31.28.08v-32.21s31.95.11,31.95.11c8.06.02,14,7.23,13.93,15.54ZM98.23,84.31c.08-4.89-3.42-9.44-8.55-9.44l-24.69.02-.02,18.54,24.12.06c5.44,0,9.05-3.74,9.14-9.18"/>
          <path class="cls-19" d="M95.21,29.89c2.56,4.91,2.83,10.69.49,15.98-2.66,5.02-7.25,7.6-12.43,8.09l-24.61-.05v-30.67s24.61,0,24.61,0c4.87,0,9.18,2.55,11.93,6.67ZM82.88,47.13c4.75,0,8.29-3.66,8.1-9.03-.15-4.48-3.17-7.97-7.33-7.97l-18.68-.02-.02,17.04,17.92-.02"/>
          <rect class="cls-32" x="54.92" y="23.23" width="3.75" height="30.67"/>
          <polygon class="cls-31" points="58.66 23.23 54.92 23.23 79.53 23.22 83.28 23.22 58.66 23.23"/>
          <polygon class="cls-31" points="51.16 116.07 47.42 116.07 88.66 115.78 92.41 115.78 51.16 116.07"/>
          <polygon class="cls-31" points="50.88 .05 47.13 .05 83.71 0 87.45 0 50.88 .05"/>
          <polygon class="cls-2" points="52.96 6.78 49.22 6.78 47.13 .05 50.88 .05 52.96 6.78"/>
          <polygon class="cls-4" points="48.24 122.67 44.49 122.67 47.42 116.07 51.16 116.07 48.24 122.67"/>
          <path class="cls-19" d="M87.45,0c12.57.49,23.77,7.88,28.95,20.27,4.81,11.5,3.69,24.51-2.8,35.32,10.67,9.53,15.58,24.2,11.91,38.48-4.26,16.57-17.55,27.85-33.53,28.59h-43.73s2.92-6.6,2.92-6.6l41.25-.29c14.28-.1,25.63-12.56,27.74-27.35,1.41-13.82-5.36-25.42-16.81-31.21,5.63-5.04,8.81-11.51,9.54-18.95,1.68-17.42-10.62-31.53-26.82-31.53l-33.09.04L50.88.05,87.45,0Z"/>
        </g>
      </g>
      <g id="Helix">
        <g class="cls-7">
          <polygon class="cls-2" points="41.47 122.67 37.72 122.67 36.56 114.23 40.31 114.23 41.47 122.67"/>
          <polygon class="cls-2" points="39.79 111.06 36.04 111.06 35.23 104.62 38.98 104.62 39.79 111.06"/>
          <g class="cls-7">
            <g class="cls-26">
              <g class="cls-7">
                <path class="cls-30" d="M38,8.64h-3.75c.53-1.85.76-3.74.63-5.72h3.75c.13,1.98-.11,3.87-.63,5.72"/>
              </g>
            </g>
          </g>
          <g class="cls-7">
            <g class="cls-25">
              <g class="cls-7">
                <path class="cls-30" d="M38.09,101.59h-3.75c-.71-2.41-1.57-4.22-2.73-6.21h3.75c1.16,1.99,2.02,3.8,2.73,6.21"/>
              </g>
            </g>
          </g>
          <g class="cls-7">
            <g class="cls-28">
              <g class="cls-7">
                <path class="cls-30" d="M34.28,17.28h-3.75c1.12-1.79,1.94-3.34,2.71-5.55h3.75c-.78,2.21-1.59,3.76-2.71,5.55"/>
              </g>
            </g>
          </g>
          <polygon class="cls-31" points="29.44 .27 25.7 .27 40.63 .02 44.38 .02 29.44 .27"/>
          <polygon class="cls-2" points="38.64 2.92 34.89 2.92 25.65 2.73 29.39 2.73 38.64 2.92"/>
          <g class="cls-7">
            <g class="cls-27">
              <g class="cls-7">
                <path class="cls-30" d="M29.39,2.73h-3.75c-.41,0-1.12-.78-1.25-1.1h3.75c.13.32.84,1.09,1.25,1.1"/>
              </g>
            </g>
          </g>
          <g class="cls-7">
            <g class="cls-13">
              <g class="cls-7">
                <path class="cls-30" d="M28.14,1.63h-3.75c-.07-.18.09-.45.32-.71h3.75c-.23.26-.39.54-.32.71"/>
                <path class="cls-20" d="M28.46.92h-3.75c.21-.23.47-.45.7-.56h3.75c-.23.12-.5.33-.7.56"/>
                <path class="cls-3" d="M29.16.36h-3.75c.11-.05.2-.09.28-.09h3.75c-.08,0-.18.03-.28.09"/>
              </g>
            </g>
          </g>
          <polygon class="cls-6" points="27.08 24.73 23.33 24.73 27.59 20.56 31.34 20.56 27.08 24.73"/>
          <polygon class="cls-2" points="33.58 29.32 29.83 29.32 23.33 24.73 27.08 24.73 33.58 29.32"/>
          <polygon class="cls-5" points="26.8 86.22 23.06 86.22 29.02 81.21 32.77 81.21 26.8 86.22"/>
          <polygon class="cls-2" points="32.69 92.13 28.94 92.13 23.06 86.22 26.8 86.22 32.69 92.13"/>
          <g class="cls-7">
            <g class="cls-10">
              <g class="cls-7">
                <path class="cls-30" d="M35.33,44.14h-3.75c-2.86-3.6-6.28-6.22-10.27-8.8h3.75c3.99,2.58,7.41,5.2,10.27,8.8"/>
              </g>
            </g>
          </g>
          <polygon class="cls-31" points="21.34 17.31 17.59 17.31 30.54 17.28 34.28 17.28 21.34 17.31"/>
          <polygon class="cls-2" points="31.34 20.56 27.59 20.56 17.48 20.2 21.22 20.2 31.34 20.56"/>
          <polygon class="cls-31" points="19.88 92.42 16.13 92.42 28.94 92.13 32.69 92.13 19.88 92.42"/>
          <g class="cls-7">
            <g class="cls-17">
              <g class="cls-7">
                <path class="cls-30" d="M21.22,20.2h-3.75c-.51-.02-1.32-.87-1.34-1.31-.01-.26.21-.64.5-.97h3.75c-.29.32-.51.71-.5.97.02.44.83,1.3,1.34,1.31"/>
                <path class="cls-20" d="M20.38,17.92h-3.75c.2-.22.42-.41.63-.52h3.75c-.21.11-.44.3-.63.52"/>
                <path class="cls-3" d="M21.02,17.4h-3.75c.11-.06.22-.09.32-.09h3.75c-.1,0-.21.03-.32.09"/>
              </g>
            </g>
          </g>
          <g class="cls-7">
            <g class="cls-15">
              <g class="cls-7">
                <path class="cls-30" d="M20.21,95.38h-3.75c-.53,0-1.59-.62-1.78-1.13-.12-.32.13-.85.49-1.25h3.75c-.36.4-.62.93-.49,1.25.19.5,1.24,1.12,1.78,1.12"/>
                <path class="cls-20" d="M18.93,93.01h-3.75c.18-.21.4-.38.6-.48h3.75c-.21.1-.42.28-.6.48"/>
                <path class="cls-3" d="M19.53,92.52h-3.75c.12-.06.24-.1.35-.1h3.75c-.11,0-.23.04-.35.1"/>
              </g>
            </g>
          </g>
          <polygon class="cls-31" points="15.83 101.7 12.09 101.7 34.35 101.59 38.09 101.59 15.83 101.7"/>
          <polygon class="cls-2" points="36.99 11.73 33.25 11.73 11.94 11.56 15.69 11.56 36.99 11.73"/>
          <polygon class="cls-2" points="40.31 114.23 36.56 114.23 11.13 114.1 14.87 114.1 40.31 114.23"/>
          <polygon class="cls-31" points="14.82 62.16 11.08 62.16 28.53 62.13 32.28 62.13 14.82 62.16"/>
          <g class="cls-7">
            <g class="cls-16">
              <g class="cls-7">
                <path class="cls-30" d="M16.16,104.62h-3.75c-.53,0-1.49-.9-1.54-1.39-.03-.28.21-.74.51-1.08h3.75c-.3.34-.54.8-.51,1.08.06.49,1.01,1.39,1.54,1.39"/>
                <path class="cls-20" d="M15.13,102.14h-3.75c.14-.16.3-.3.45-.37h3.75c-.15.08-.31.21-.45.37"/>
                <path class="cls-3" d="M15.59,101.77h-3.75c.09-.04.17-.07.24-.07h3.75c-.08,0-.16.02-.24.07"/>
              </g>
            </g>
          </g>
          <polygon class="cls-31" points="14.51 111.09 10.77 111.09 36.04 111.06 39.79 111.06 14.51 111.09"/>
          <g class="cls-7">
            <g class="cls-14">
              <g class="cls-7">
                <path class="cls-30" d="M15.69,11.56h-3.75c-.5,0-1.29-1.2-1.25-1.63.01-.17.12-.36.29-.55h3.75c-.17.19-.28.38-.29.55-.03.43.75,1.63,1.25,1.63"/>
                <path class="cls-20" d="M14.73,9.38h-3.75c.2-.23.49-.44.77-.58h3.75c-.28.14-.56.35-.77.58"/>
                <path class="cls-3" d="M15.49,8.8h-3.75c.21-.11.42-.17.6-.17h3.75c-.17,0-.38.07-.6.17"/>
              </g>
            </g>
          </g>
          <path class="cls-19" d="M44.38.02c2.47,11.53-1.96,22.52-10.8,29.29l-6.5-4.59,4.26-4.17-10.11-.36c-.51-.02-1.32-.87-1.34-1.31-.03-.53.91-1.57,1.45-1.57l12.94-.03c1.12-1.79,1.94-3.34,2.71-5.55l-21.3-.17c-.5,0-1.29-1.2-1.25-1.63.03-.53,1.06-1.3,1.65-1.3l21.91.02c.53-1.85.76-3.74.63-5.72l-9.25-.19c-.41,0-1.12-.78-1.25-1.1-.16-.4.87-1.35,1.3-1.36L44.38.02Z"/>
          <polygon class="cls-2" points="31.78 46.59 28.03 46.59 9.77 46.58 13.52 46.58 31.78 46.59"/>
          <g class="cls-7">
            <g class="cls-11">
              <g class="cls-7">
                <path class="cls-30" d="M14.87,114.1h-3.75c-.57,0-1.34-.74-1.55-1.15h3.75c.22.41.98,1.14,1.55,1.15"/>
              </g>
            </g>
          </g>
          <path class="cls-19" d="M32.77,81.21c13.38,11.55,16.75,24,8.7,41.46l-1.16-8.44-25.43-.13c-.57,0-1.34-.74-1.55-1.15-.23-.41.6-1.85,1.19-1.85l25.28-.03-.81-6.44h-22.81c-.53,0-1.49-.9-1.54-1.39s.72-1.52,1.21-1.52l22.26-.11c-.71-2.41-1.57-4.22-2.73-6.21h-15.15c-.53,0-1.59-.62-1.78-1.12-.23-.58.78-1.82,1.44-1.84l12.81-.3-5.88-5.9,5.97-5.01Z"/>
          <g class="cls-7">
            <g class="cls-8">
              <g class="cls-7">
                <path class="cls-30" d="M13.32,112.94h-3.75c-.16-.28.17-1.02.58-1.47h3.75c-.41.46-.73,1.2-.58,1.47"/>
                <path class="cls-20" d="M13.89,111.47h-3.75c.12-.14.26-.25.39-.32h3.75c-.13.07-.26.18-.39.32"/>
                <path class="cls-3" d="M14.28,111.15h-3.75c.08-.04.16-.06.23-.06h3.75c-.07,0-.15.02-.23.06"/>
              </g>
            </g>
          </g>
          <g class="cls-7">
            <g class="cls-12">
              <g class="cls-7">
                <path class="cls-30" d="M9.51,122.65h-3.75c-6.15-12.38-6.86-25.08,2.54-35.57h3.75c-9.4,10.49-8.69,23.19-2.54,35.57"/>
                <path class="cls-20" d="M12.05,87.08h-3.75c.2-.22.4-.44.61-.66,4.1-4.33,8.43-7.83,13.01-11.56,2.73-2.21,5.5-4.46,7.84-7.08h3.75c-2.35,2.62-5.11,4.87-7.84,7.08-4.58,3.73-8.91,7.23-13.01,11.56-.21.22-.41.44-.61.66"/>
                <path class="cls-30" d="M33.5,67.79h-3.75c.91-1.01,1.76-2.08,2.51-3.23,4.29-6.47,3.75-14.34-.68-20.42h3.75c4.43,6.08,4.97,13.95.68,20.42-.76,1.14-1.6,2.21-2.51,3.23"/>
              </g>
            </g>
          </g>
          <polygon class="cls-2" points="35.41 55.72 31.66 55.72 8.22 55.65 11.97 55.65 35.41 55.72"/>
          <polygon class="cls-5" points="11.66 35.89 7.91 35.89 14.58 30.47 18.33 30.47 11.66 35.89"/>
          <polygon class="cls-31" points="5.69 .09 1.95 .09 7.27 .04 11.02 .04 5.69 .09"/>
          <g class="cls-7">
            <g class="cls-9">
              <g class="cls-7">
                <path class="cls-30" d="M18.33,30.47h-3.75C5.48,23.25.43,12.2,1.95.09h3.75c-1.52,12.11,3.54,23.16,12.63,30.38"/>
              </g>
            </g>
          </g>
          <path class="cls-19" d="M11.02.04c-.64,24.19,20.38,26.25,30.7,39.55,7.04,9.06,6.75,21.29-.41,30.14-7.28,9-14.74,13.07-22.75,21.01-9.69,11.07-6.68,18-9.05,31.9-6.28-12.64-6.88-25.61,3.15-36.23,4.1-4.33,8.43-7.83,13.01-11.56,3.79-3.07,7.64-6.21,10.36-10.3,4.29-6.47,3.75-14.34-.68-20.42-2.86-3.6-6.28-6.22-10.27-8.8-3.36,2.52-6.56,4.72-9.31,8.07l16.01.09c.49,0,1.43.86,1.5,1.37.08.6-.86,1.72-1.48,1.72H13.52c-.91,2.06-1.38,3.67-1.56,6.14l23.75.1c.52,0,1.42,1.22,1.26,1.69-.17.47-1.07,1.21-1.56,1.21l-23.44-.07c.63,2.69,1.48,4.64,2.85,6.51l17.46-.03c.48,0,1.39.51,1.66.89.33.45-.51,2.08-1.04,2.09l-16.01.32c2.45,2.97,4.37,4.81,7,7.41l-6.2,5.2C9.63,70.26.26,59.99,4.68,47.04c1.47-4.3,3.61-8.4,6.98-11.14l6.67-5.43C9.23,23.25,4.17,12.2,5.69.09l5.32-.05Z"/>
          <g class="cls-7">
            <g class="cls-18">
              <g class="cls-7">
                <path class="cls-30" d="M17.69,78.03h-3.75C5.89,70.26-3.49,59.99.94,47.04c1.18-3.45,2.78-6.76,5.11-9.35h3.75c-2.32,2.59-3.93,5.91-5.11,9.35-4.42,12.95,4.95,23.22,13.01,31"/>
                <path class="cls-20" d="M9.79,37.69h-3.75c.58-.64,1.2-1.24,1.87-1.79h3.75c-.67.55-1.29,1.15-1.87,1.79"/>
              </g>
            </g>
          </g>
        </g>
      </g>
    </g>
  </g>
</svg>